<?xml version="1.0" encoding="UTF-8"?>
<svg xmlns="http://www.w3.org/2000/svg" xmlns:xlink="http://www.w3.org/1999/xlink" width="24pt" height="24pt" viewBox="0 0 24 24" version="1.1">
<g id="surface1">
<path style=" stroke:none;fill-rule:nonzero;fill:rgb(23.529412%,68.627451%,80.784314%);fill-opacity:1;" d="M 15.652344 5.265625 C 15.652344 6.273438 14.832031 7.09375 13.824219 7.09375 C 12.8125 7.09375 11.996094 6.273438 11.996094 5.265625 C 11.996094 4.253906 12.8125 3.4375 13.824219 3.4375 C 14.832031 3.4375 15.652344 4.253906 15.652344 5.265625 Z M 15.652344 5.265625 "/>
<path style=" stroke:none;fill-rule:nonzero;fill:rgb(23.529412%,68.627451%,80.784314%);fill-opacity:1;" d="M 13.679688 11.152344 C 13.679688 12.523438 12.566406 13.636719 11.195312 13.636719 C 9.820312 13.636719 8.710938 12.523438 8.710938 11.152344 C 8.710938 9.78125 9.820312 8.667969 11.195312 8.667969 C 12.566406 8.667969 13.679688 9.78125 13.679688 11.152344 Z M 13.679688 11.152344 "/>
<path style=" stroke:none;fill-rule:nonzero;fill:rgb(23.529412%,68.627451%,80.784314%);fill-opacity:1;" d="M 7.085938 13.53125 C 7.085938 14.695312 6.144531 15.636719 4.984375 15.636719 C 3.820312 15.636719 2.878906 14.695312 2.878906 13.53125 C 2.878906 12.371094 3.820312 11.429688 4.984375 11.429688 C 6.144531 11.429688 7.085938 12.371094 7.085938 13.53125 Z M 7.085938 13.53125 "/>
<path style=" stroke:none;fill-rule:nonzero;fill:rgb(23.529412%,68.627451%,80.784314%);fill-opacity:1;" d="M 19.890625 16.378906 C 19.890625 18.0625 18.523438 19.429688 16.835938 19.429688 C 15.152344 19.429688 13.785156 18.0625 13.785156 16.378906 C 13.785156 14.691406 15.152344 13.328125 16.835938 13.328125 C 18.523438 13.328125 19.890625 14.691406 19.890625 16.378906 Z M 19.890625 16.378906 "/>
<path style=" stroke:none;fill-rule:nonzero;fill:rgb(23.529412%,68.627451%,80.784314%);fill-opacity:1;" d="M 9.484375 12.007812 L 6.332031 13.390625 L 6.023438 12.683594 C 6.023438 12.683594 6.023438 12.683594 9.289062 11.488281 Z M 9.484375 12.007812 "/>
<path style=" stroke:none;fill-rule:nonzero;fill:rgb(23.529412%,68.627451%,80.784314%);fill-opacity:1;" d="M 14.59375 14.921875 C 12.253906 12.695312 12.253906 12.695312 12.253906 12.695312 L 12.699219 12.21875 L 15.589844 14.5625 L 14.945312 15.167969 Z M 14.59375 14.921875 "/>
<path style=" stroke:none;fill-rule:nonzero;fill:rgb(23.529412%,68.627451%,80.784314%);fill-opacity:1;" d="M 12.484375 9.382812 L 13.824219 6.164062 L 13.433594 5.984375 L 11.609375 9.445312 L 12.160156 9.769531 Z M 12.484375 9.382812 "/>
</g>
</svg>
